# xmcd CD database file
#
# Track frame offsets:
#	150
#	24190
#	40664
#	59396
#	73178
#	86345
#	104564
#	119488
#	134872
#	148322
#	161203
#	178173
#
# Disc length: 2577 seconds
#
# Revision: 0
# Processed by: cddbd v1.5.2PL0 Copyright (c) Steve Scherf et al.
# Submitted via: CDex 1.70beta2
#
DISCID=b70a0f0c
DTITLE=Various Artist - 夜空ジャズ  RELAX-100
DYEAR=2015
DGENRE=Jazz
TTITLE0=September
TTITLE1=Take Five
TTITLE2=I Just Called To Say I Love You
TTITLE3=Night Bird
TTITLE4=Calling You
TTITLE5=Love Theme From Spartacus
TTITLE6=The Last Time I Saw Paris
TTITLE7=Old Devil Moon
TTITLE8=Straight No Chaser
TTITLE9=Lover，Come Back To Me
TTITLE10=In A Mellow Tone
TTITLE11=(All Of A Sudden) My Heart Sings
EXTD=YEAR: 2015
EXTT0=
EXTT1=
EXTT2=
EXTT3=
EXTT4=
EXTT5=
EXTT6=
EXTT7=
EXTT8=
EXTT9=
EXTT10=
EXTT11=
PLAYORDER=
